<svg width="24" height="24" viewBox="0 0 24 24" fill="none" xmlns="http://www.w3.org/2000/svg">
<path d="M4.29593 12L12.7879 3.27303C12.8578 3.2027 12.9131 3.1192 12.9506 3.02737C12.988 2.93554 13.0068 2.8372 13.006 2.73803C13.0052 2.63887 12.9847 2.54085 12.9458 2.44965C12.9068 2.35845 12.8501 2.27589 12.7791 2.20673C12.708 2.13757 12.6239 2.0832 12.5317 2.04675C12.4395 2.0103 12.3409 1.99251 12.2418 1.9944C12.1426 1.99628 12.0448 2.01782 11.954 2.05775C11.8633 2.09768 11.7813 2.15522 11.7129 2.22703L2.71293 11.477C2.57671 11.617 2.50049 11.8047 2.50049 12C2.50049 12.1954 2.57671 12.383 2.71293 12.523L11.7129 21.773C11.7813 21.8448 11.8633 21.9024 11.954 21.9423C12.0448 21.9822 12.1426 22.0038 12.2418 22.0057C12.3409 22.0075 12.4395 21.9898 12.5317 21.9533C12.6239 21.9169 12.708 21.8625 12.7791 21.7933C12.8501 21.7242 12.9068 21.6416 12.9458 21.5504C12.9847 21.4592 13.0052 21.3612 13.006 21.262C13.0068 21.1629 12.988 21.0645 12.9506 20.9727C12.9131 20.8809 12.8578 20.7974 12.7879 20.727L4.29593 12Z" fill="#52525B"/>
</svg>
