<svg width="41" height="40" viewBox="0 0 41 40" fill="none" xmlns="http://www.w3.org/2000/svg">
<path d="M0.5 4C0.5 1.79086 2.29086 0 4.5 0H36.5C38.7091 0 40.5 1.79086 40.5 4V36C40.5 38.2091 38.7091 40 36.5 40H4.5C2.29086 40 0.5 38.2091 0.5 36V4Z" fill="#E6F0FB"/>
<path d="M23.5 19H21.5V15C21.5 14.7348 21.3946 14.4804 21.2071 14.2929C21.0196 14.1054 20.7652 14 20.5 14C20.2348 14 19.9804 14.1054 19.7929 14.2929C19.6054 14.4804 19.5 14.7348 19.5 15V20C19.5 20.2652 19.6054 20.5196 19.7929 20.7071C19.9804 20.8946 20.2348 21 20.5 21H23.5C23.7652 21 24.0196 20.8946 24.2071 20.7071C24.3946 20.5196 24.5 20.2652 24.5 20C24.5 19.7348 24.3946 19.4804 24.2071 19.2929C24.0196 19.1054 23.7652 19 23.5 19ZM20.5 10C18.5222 10 16.5888 10.5865 14.9443 11.6853C13.2998 12.7841 12.0181 14.3459 11.2612 16.1732C10.5043 18.0004 10.3063 20.0111 10.6922 21.9509C11.078 23.8907 12.0304 25.6725 13.4289 27.0711C14.8275 28.4696 16.6093 29.422 18.5491 29.8079C20.4889 30.1937 22.4996 29.9957 24.3268 29.2388C26.1541 28.4819 27.7159 27.2002 28.8147 25.5557C29.9135 23.9112 30.5 21.9778 30.5 20C30.5 18.6868 30.2413 17.3864 29.7388 16.1732C29.2363 14.9599 28.4997 13.8575 27.5711 12.9289C26.6425 12.0003 25.5401 11.2638 24.3268 10.7612C23.1136 10.2587 21.8132 10 20.5 10ZM20.5 28C18.9178 28 17.371 27.5308 16.0554 26.6518C14.7398 25.7727 13.7145 24.5233 13.109 23.0615C12.5035 21.5997 12.345 19.9911 12.6537 18.4393C12.9624 16.8874 13.7243 15.462 14.8432 14.3431C15.962 13.2243 17.3874 12.4624 18.9393 12.1537C20.4911 11.845 22.0997 12.0035 23.5615 12.609C25.0233 13.2145 26.2727 14.2398 27.1518 15.5554C28.0308 16.871 28.5 18.4177 28.5 20C28.5 22.1217 27.6572 24.1566 26.1569 25.6569C24.6566 27.1571 22.6217 28 20.5 28Z" fill="#0068D9"/>
</svg>
