<svg width="20" height="21" viewBox="0 0 20 21" fill="none" xmlns="http://www.w3.org/2000/svg">
<path d="M17 2.97046H15V1.97046C15 1.70524 14.8946 1.45089 14.7071 1.26335C14.5196 1.07582 14.2652 0.970459 14 0.970459C13.7348 0.970459 13.4804 1.07582 13.2929 1.26335C13.1054 1.45089 13 1.70524 13 1.97046V2.97046H7V1.97046C7 1.70524 6.89464 1.45089 6.70711 1.26335C6.51957 1.07582 6.26522 0.970459 6 0.970459C5.73478 0.970459 5.48043 1.07582 5.29289 1.26335C5.10536 1.45089 5 1.70524 5 1.97046V2.97046H3C2.20435 2.97046 1.44129 3.28653 0.87868 3.84914C0.316071 4.41175 0 5.17481 0 5.97046V17.9705C0 18.7661 0.316071 19.5292 0.87868 20.0918C1.44129 20.6544 2.20435 20.9705 3 20.9705H17C17.7956 20.9705 18.5587 20.6544 19.1213 20.0918C19.6839 19.5292 20 18.7661 20 17.9705V5.97046C20 5.17481 19.6839 4.41175 19.1213 3.84914C18.5587 3.28653 17.7956 2.97046 17 2.97046ZM18 17.9705C18 18.2357 17.8946 18.49 17.7071 18.6776C17.5196 18.8651 17.2652 18.9705 17 18.9705H3C2.73478 18.9705 2.48043 18.8651 2.29289 18.6776C2.10536 18.49 2 18.2357 2 17.9705V10.9705H18V17.9705ZM18 8.97046H2V5.97046C2 5.70524 2.10536 5.45089 2.29289 5.26335C2.48043 5.07582 2.73478 4.97046 3 4.97046H5V5.97046C5 6.23568 5.10536 6.49003 5.29289 6.67757C5.48043 6.8651 5.73478 6.97046 6 6.97046C6.26522 6.97046 6.51957 6.8651 6.70711 6.67757C6.89464 6.49003 7 6.23568 7 5.97046V4.97046H13V5.97046C13 6.23568 13.1054 6.49003 13.2929 6.67757C13.4804 6.8651 13.7348 6.97046 14 6.97046C14.2652 6.97046 14.5196 6.8651 14.7071 6.67757C14.8946 6.49003 15 6.23568 15 5.97046V4.97046H17C17.2652 4.97046 17.5196 5.07582 17.7071 5.26335C17.8946 5.45089 18 5.70524 18 5.97046V8.97046Z" fill="#A1A1AA"/>
</svg>
