<svg width="28" height="28" viewBox="0 0 28 28" fill="none" xmlns="http://www.w3.org/2000/svg">
<path d="M0 4C0 1.79086 1.79086 0 4 0H24C26.2091 0 28 1.79086 28 4V24C28 26.2091 26.2091 28 24 28H4C1.79086 28 0 26.2091 0 24V4Z" fill="#E6F0FB"/>
<path d="M17 13H15V9C15 8.73478 14.8946 8.48043 14.7071 8.29289C14.5196 8.10536 14.2652 8 14 8C13.7348 8 13.4804 8.10536 13.2929 8.29289C13.1054 8.48043 13 8.73478 13 9V14C13 14.2652 13.1054 14.5196 13.2929 14.7071C13.4804 14.8946 13.7348 15 14 15H17C17.2652 15 17.5196 14.8946 17.7071 14.7071C17.8946 14.5196 18 14.2652 18 14C18 13.7348 17.8946 13.4804 17.7071 13.2929C17.5196 13.1054 17.2652 13 17 13ZM14 4C12.0222 4 10.0888 4.58649 8.4443 5.6853C6.79981 6.78412 5.51809 8.3459 4.76121 10.1732C4.00433 12.0004 3.8063 14.0111 4.19215 15.9509C4.578 17.8907 5.53041 19.6725 6.92894 21.0711C8.32746 22.4696 10.1093 23.422 12.0491 23.8079C13.9889 24.1937 15.9996 23.9957 17.8268 23.2388C19.6541 22.4819 21.2159 21.2002 22.3147 19.5557C23.4135 17.9112 24 15.9778 24 14C24 12.6868 23.7413 11.3864 23.2388 10.1732C22.7363 8.95991 21.9997 7.85752 21.0711 6.92893C20.1425 6.00035 19.0401 5.26375 17.8268 4.7612C16.6136 4.25866 15.3132 4 14 4ZM14 22C12.4178 22 10.871 21.5308 9.55544 20.6518C8.23985 19.7727 7.21447 18.5233 6.60897 17.0615C6.00347 15.5997 5.84504 13.9911 6.15372 12.4393C6.4624 10.8874 7.22433 9.46197 8.34315 8.34315C9.46197 7.22433 10.8874 6.4624 12.4393 6.15372C13.9911 5.84504 15.5997 6.00346 17.0615 6.60896C18.5233 7.21447 19.7727 8.23984 20.6518 9.55544C21.5308 10.871 22 12.4177 22 14C22 16.1217 21.1572 18.1566 19.6569 19.6569C18.1566 21.1571 16.1217 22 14 22Z" fill="#0068D9"/>
</svg>
