<svg width="32" height="32" viewBox="0 0 32 32" fill="none" xmlns="http://www.w3.org/2000/svg">
<path d="M16 0C24.8366 0 32 7.16344 32 16C32 24.8366 24.8366 32 16 32C7.16344 32 0 24.8366 0 16C0 7.16344 7.16344 0 16 0Z" fill="#E4E4E7"/>
<path d="M16 0C24.8366 0 32 7.16344 32 16C32 24.8366 24.8366 32 16 32C7.16344 32 0 24.8366 0 16C0 7.16344 7.16344 0 16 0Z" stroke="#E5E7EB"/>
<path d="M15.29 18.6601C15.1053 18.8463 15.0011 19.0977 15 19.3601C15.0003 19.4941 15.0275 19.6267 15.08 19.7501C15.1703 19.962 15.3309 20.1362 15.5348 20.2434C15.7387 20.3505 15.9733 20.384 16.1991 20.3381C16.4248 20.2923 16.6278 20.1699 16.7737 19.9917C16.9196 19.8135 16.9996 19.5904 17 19.3601C16.9989 19.0977 16.8947 18.8463 16.71 18.6601C16.617 18.5663 16.5064 18.492 16.3846 18.4412C16.2627 18.3904 16.132 18.3643 16 18.3643C15.868 18.3643 15.7373 18.3904 15.6154 18.4412C15.4936 18.492 15.383 18.5663 15.29 18.6601ZM23.63 7.66007C23.5138 7.5661 23.3781 7.49935 23.2327 7.46474C23.0873 7.43013 22.9361 7.42853 22.79 7.46007C21.7214 7.68402 20.6183 7.68687 19.5486 7.46846C18.4789 7.25004 17.4653 6.81499 16.57 6.19007C16.4026 6.07395 16.2037 6.01172 16 6.01172C15.7963 6.01172 15.5974 6.07395 15.43 6.19007C14.534 6.81327 13.52 7.24655 12.4503 7.46324C11.3806 7.67993 10.2779 7.67545 9.21001 7.45007C9.06394 7.41853 8.91267 7.42013 8.76731 7.45474C8.62194 7.48935 8.48618 7.5561 8.37001 7.65007C8.25399 7.74419 8.16053 7.86311 8.0965 7.99809C8.03247 8.13307 7.9995 8.28068 8.00001 8.43007V15.8801C7.99912 17.3138 8.34078 18.727 8.99654 20.002C9.6523 21.277 10.6032 22.3769 11.77 23.2101L15.42 25.8101C15.5894 25.9307 15.7921 25.9955 16 25.9955C16.2079 25.9955 16.4106 25.9307 16.58 25.8101L20.23 23.2101C21.3968 22.3769 22.3477 21.277 23.0035 20.002C23.6592 18.727 24.0009 17.3138 24 15.8801V8.43007C24.0005 8.28068 23.9675 8.13307 23.9035 7.99809C23.8395 7.86311 23.746 7.74419 23.63 7.65007V7.66007ZM22 15.8801C22.0008 16.9948 21.7353 18.0937 21.2257 19.0851C20.716 20.0765 19.977 20.9319 19.07 21.5801L16 23.7701L12.93 21.5801C12.023 20.9319 11.284 20.0765 10.7744 19.0851C10.2647 18.0937 9.99924 16.9948 10 15.8801V9.58007C12.0964 9.75951 14.196 9.2731 16 8.19007C17.804 9.2731 19.9036 9.75951 22 9.58007V15.8801ZM16 11.3601C15.4731 11.3597 14.9553 11.4982 14.4989 11.7615C14.0425 12.0248 13.6635 12.4037 13.4 12.8601C13.2805 13.0886 13.2538 13.3545 13.3257 13.6022C13.3976 13.8499 13.5623 14.0603 13.7856 14.1894C14.0089 14.3184 14.2735 14.3562 14.524 14.2949C14.7745 14.2335 14.9916 14.0777 15.13 13.8601C15.2177 13.7082 15.3438 13.5821 15.4956 13.4943C15.6474 13.4065 15.8197 13.3603 15.995 13.3601C16.1704 13.3599 16.3427 13.4059 16.4947 13.4933C16.6467 13.5808 16.7731 13.7067 16.8611 13.8584C16.949 14.0101 16.9956 14.1822 16.996 14.3576C16.9965 14.533 16.9508 14.7054 16.8635 14.8575C16.7763 15.0096 16.6506 15.1362 16.499 15.2244C16.3475 15.3126 16.1754 15.3594 16 15.3601C15.7348 15.3601 15.4804 15.4654 15.2929 15.653C15.1054 15.8405 15 16.0949 15 16.3601C15 16.6253 15.1054 16.8796 15.2929 17.0672C15.4804 17.2547 15.7348 17.3601 16 17.3601C16.7957 17.3601 17.5587 17.044 18.1213 16.4814C18.6839 15.9188 19 15.1557 19 14.3601C19 13.5644 18.6839 12.8014 18.1213 12.2388C17.5587 11.6761 16.7957 11.3601 16 11.3601Z" fill="#52525B"/>
</svg>
