<svg width="28" height="28" viewBox="0 0 28 28" fill="none" xmlns="http://www.w3.org/2000/svg">
<path d="M0 4C0 1.79086 1.79086 0 4 0H24C26.2091 0 28 1.79086 28 4V24C28 26.2091 26.2091 28 24 28H4C1.79086 28 0 26.2091 0 24V4Z" fill="#B3261E" fill-opacity="0.24"/>
<path d="M12.5999 7.63C12.3347 7.67774 12.0993 7.82888 11.9456 8.05017C11.7918 8.27147 11.7322 8.54478 11.7799 8.81C11.8277 9.07522 11.9788 9.31061 12.2001 9.46439C12.4214 9.61817 12.6947 9.67774 12.9599 9.63C13.2903 9.57293 13.6247 9.54283 13.9599 9.54C15.5512 9.54 17.0774 10.1721 18.2026 11.2974C19.3278 12.4226 19.9599 13.9487 19.9599 15.54C19.9571 15.8752 19.927 16.2097 19.8699 16.54C19.8232 16.7998 19.8811 17.0675 20.0309 17.2848C20.1808 17.5021 20.4105 17.6514 20.6699 17.7H20.8499C21.0867 17.7039 21.3172 17.6236 21.5003 17.4734C21.6835 17.3232 21.8073 17.113 21.8499 16.88C21.9428 16.4257 21.993 15.9637 21.9999 15.5C21.9954 13.7198 21.3971 11.9919 20.2999 10.59L21.2099 9.69C21.3982 9.5017 21.504 9.2463 21.504 8.98C21.504 8.7137 21.3982 8.4583 21.2099 8.27C21.0216 8.0817 20.7662 7.97591 20.4999 7.97591C20.2336 7.97591 19.9782 8.0817 19.7899 8.27L18.8899 9.18C17.4908 8.09417 15.771 7.50329 13.9999 7.5C13.5302 7.4991 13.0615 7.54263 12.5999 7.63ZM11.9999 6.5H15.9999C16.2652 6.5 16.5195 6.39464 16.707 6.20711C16.8946 6.01957 16.9999 5.76522 16.9999 5.5C16.9999 5.23478 16.8946 4.98043 16.707 4.79289C16.5195 4.60536 16.2652 4.5 15.9999 4.5H11.9999C11.7347 4.5 11.4804 4.60536 11.2928 4.79289C11.1053 4.98043 10.9999 5.23478 10.9999 5.5C10.9999 5.76522 11.1053 6.01957 11.2928 6.20711C11.4804 6.39464 11.7347 6.5 11.9999 6.5ZM15.4899 15.58C15.4899 15.58 15.4899 15.53 15.4899 15.5C15.4899 15.47 15.4899 15.45 15.4899 15.42L16.8299 14.09C16.9232 13.9968 16.9971 13.8861 17.0476 13.7642C17.0981 13.6424 17.124 13.5119 17.124 13.38C17.124 13.2481 17.0981 13.1176 17.0476 12.9958C16.9971 12.8739 16.9232 12.7632 16.8299 12.67C16.7367 12.5768 16.626 12.5028 16.5042 12.4523C16.3824 12.4019 16.2518 12.3759 16.1199 12.3759C15.9881 12.3759 15.8575 12.4019 15.7357 12.4523C15.6139 12.5028 15.5032 12.5768 15.4099 12.67L14.0799 14H13.9199L7.70994 7.79C7.52164 7.6017 7.26624 7.49591 6.99994 7.49591C6.73364 7.49591 6.47824 7.6017 6.28994 7.79C6.10164 7.9783 5.99585 8.2337 5.99585 8.5C5.99585 8.7663 6.10164 9.0217 6.28994 9.21L6.76994 9.69L7.67994 10.6C6.49341 12.1396 5.908 14.0585 6.03309 15.9983C6.15818 17.938 6.98521 19.7658 8.35965 21.1403C9.7341 22.5147 11.5619 23.3418 13.5017 23.4669C15.4414 23.5919 17.3603 23.0065 18.8999 21.82L20.2899 23.21C20.3829 23.3037 20.4935 23.3781 20.6154 23.4289C20.7372 23.4797 20.8679 23.5058 20.9999 23.5058C21.132 23.5058 21.2627 23.4797 21.3845 23.4289C21.5064 23.3781 21.617 23.3037 21.7099 23.21C21.8037 23.117 21.8781 23.0064 21.9288 22.8846C21.9796 22.7627 22.0057 22.632 22.0057 22.5C22.0057 22.368 21.9796 22.2373 21.9288 22.1154C21.8781 21.9936 21.8037 21.883 21.7099 21.79L15.4899 15.58ZM13.9999 21.5C12.8948 21.5031 11.8103 21.2008 10.866 20.6266C9.92171 20.0525 9.15436 19.2286 8.64857 18.246C8.14279 17.2634 7.91821 16.1602 7.99962 15.058C8.08103 13.9559 8.46527 12.8976 9.10994 12L12.5099 15.39C12.5099 15.39 12.5099 15.44 12.5099 15.47C12.506 15.6687 12.5415 15.8661 12.6145 16.0509C12.6874 16.2357 12.7964 16.4042 12.935 16.5466C13.0737 16.6889 13.2392 16.8023 13.422 16.8801C13.6048 16.958 13.8013 16.9987 13.9999 17H14.0799L17.4699 20.4C16.4551 21.1172 15.2426 21.5015 13.9999 21.5Z" fill="#B3261E"/>
</svg>
