<svg width="41" height="40" viewBox="0 0 41 40" fill="none" xmlns="http://www.w3.org/2000/svg">
<path d="M0.5 4C0.5 1.79086 2.29086 0 4.5 0H36.5C38.7091 0 40.5 1.79086 40.5 4V36C40.5 38.2091 38.7091 40 36.5 40H4.5C2.29086 40 0.5 38.2091 0.5 36V4Z" fill="#E6F0FB"/>
<path d="M20.5 20C19.9067 20 19.3266 20.1759 18.8333 20.5056C18.3399 20.8352 17.9554 21.3038 17.7284 21.8519C17.5013 22.4001 17.4419 23.0033 17.5576 23.5853C17.6734 24.1672 17.9591 24.7018 18.3787 25.1213C18.7982 25.5409 19.3328 25.8266 19.9147 25.9424C20.4967 26.0581 21.0999 25.9987 21.6481 25.7716C22.1962 25.5446 22.6648 25.1601 22.9944 24.6667C23.3241 24.1734 23.5 23.5933 23.5 23C23.5 22.2044 23.1839 21.4413 22.6213 20.8787C22.0587 20.3161 21.2956 20 20.5 20ZM20.5 24C20.3022 24 20.1089 23.9414 19.9444 23.8315C19.78 23.7216 19.6518 23.5654 19.5761 23.3827C19.5004 23.2 19.4806 22.9989 19.5192 22.8049C19.5578 22.6109 19.653 22.4327 19.7929 22.2929C19.9327 22.153 20.1109 22.0578 20.3049 22.0192C20.4989 21.9806 20.7 22.0004 20.8827 22.0761C21.0654 22.1518 21.2216 22.28 21.3315 22.4444C21.4414 22.6089 21.5 22.8022 21.5 23C21.5 23.2652 21.3946 23.5196 21.2071 23.7071C21.0196 23.8946 20.7652 24 20.5 24ZM19.79 17.71C19.8851 17.801 19.9972 17.8724 20.12 17.92C20.2397 17.9729 20.3691 18.0002 20.5 18.0002C20.6309 18.0002 20.7603 17.9729 20.88 17.92C21.0028 17.8724 21.1149 17.801 21.21 17.71L23.5 15.46C23.6936 15.2664 23.8024 15.0038 23.8024 14.73C23.8024 14.4562 23.6936 14.1936 23.5 14C23.3064 13.8064 23.0438 13.6976 22.77 13.6976C22.4962 13.6976 22.2336 13.8064 22.04 14L21.5 14.59V11C21.5 10.7348 21.3946 10.4804 21.2071 10.2929C21.0196 10.1054 20.7652 10 20.5 10C20.2348 10 19.9804 10.1054 19.7929 10.2929C19.6054 10.4804 19.5 10.7348 19.5 11V14.59L18.96 14C18.7664 13.8064 18.5038 13.6976 18.23 13.6976C17.9562 13.6976 17.6936 13.8064 17.5 14C17.3064 14.1936 17.1976 14.4562 17.1976 14.73C17.1976 15.0038 17.3064 15.2664 17.5 15.46L19.79 17.71ZM27.5 23C27.5 22.8022 27.4414 22.6089 27.3315 22.4444C27.2216 22.28 27.0654 22.1518 26.8827 22.0761C26.7 22.0004 26.4989 21.9806 26.3049 22.0192C26.1109 22.0578 25.9327 22.153 25.7929 22.2929C25.653 22.4327 25.5578 22.6109 25.5192 22.8049C25.4806 22.9989 25.5004 23.2 25.5761 23.3827C25.6518 23.5654 25.78 23.7216 25.9444 23.8315C26.1089 23.9414 26.3022 24 26.5 24C26.7652 24 27.0196 23.8946 27.2071 23.7071C27.3946 23.5196 27.5 23.2652 27.5 23ZM28.5 16H25.5C25.2348 16 24.9804 16.1054 24.7929 16.2929C24.6054 16.4804 24.5 16.7348 24.5 17C24.5 17.2652 24.6054 17.5196 24.7929 17.7071C24.9804 17.8946 25.2348 18 25.5 18H28.5C28.7652 18 29.0196 18.1054 29.2071 18.2929C29.3946 18.4804 29.5 18.7348 29.5 19V27C29.5 27.2652 29.3946 27.5196 29.2071 27.7071C29.0196 27.8946 28.7652 28 28.5 28H12.5C12.2348 28 11.9804 27.8946 11.7929 27.7071C11.6054 27.5196 11.5 27.2652 11.5 27V19C11.5 18.7348 11.6054 18.4804 11.7929 18.2929C11.9804 18.1054 12.2348 18 12.5 18H15.5C15.7652 18 16.0196 17.8946 16.2071 17.7071C16.3946 17.5196 16.5 17.2652 16.5 17C16.5 16.7348 16.3946 16.4804 16.2071 16.2929C16.0196 16.1054 15.7652 16 15.5 16H12.5C11.7044 16 10.9413 16.3161 10.3787 16.8787C9.81607 17.4413 9.5 18.2044 9.5 19V27C9.5 27.7956 9.81607 28.5587 10.3787 29.1213C10.9413 29.6839 11.7044 30 12.5 30H28.5C29.2956 30 30.0587 29.6839 30.6213 29.1213C31.1839 28.5587 31.5 27.7956 31.5 27V19C31.5 18.2044 31.1839 17.4413 30.6213 16.8787C30.0587 16.3161 29.2956 16 28.5 16ZM13.5 23C13.5 23.1978 13.5586 23.3911 13.6685 23.5556C13.7784 23.72 13.9346 23.8482 14.1173 23.9239C14.3 23.9996 14.5011 24.0194 14.6951 23.9808C14.8891 23.9422 15.0673 23.847 15.2071 23.7071C15.347 23.5673 15.4422 23.3891 15.4808 23.1951C15.5194 23.0011 15.4996 22.8 15.4239 22.6173C15.3482 22.4346 15.22 22.2784 15.0556 22.1685C14.8911 22.0586 14.6978 22 14.5 22C14.2348 22 13.9804 22.1054 13.7929 22.2929C13.6054 22.4804 13.5 22.7348 13.5 23Z" fill="#0068D9"/>
</svg>
