<svg width="9" height="16" viewBox="0 0 9 16" fill="none" xmlns="http://www.w3.org/2000/svg">
<g clip-path="url(#clip0_123_11995)">
<path d="M5.05547 13.2C6.25781 11.6953 9 8.04844 9 6C9 3.51562 6.98438 1.5 4.5 1.5C2.01562 1.5 0 3.51562 0 6C0 8.04844 2.74219 11.6953 3.94453 13.2C4.23281 13.5586 4.76719 13.5586 5.05547 13.2ZM4.5 4.5C4.89782 4.5 5.27936 4.65804 5.56066 4.93934C5.84196 5.22064 6 5.60218 6 6C6 6.39782 5.84196 6.77936 5.56066 7.06066C5.27936 7.34196 4.89782 7.5 4.5 7.5C4.10218 7.5 3.72064 7.34196 3.43934 7.06066C3.15804 6.77936 3 6.39782 3 6C3 5.60218 3.15804 5.22064 3.43934 4.93934C3.72064 4.65804 4.10218 4.5 4.5 4.5Z" fill="#007BFF"/>
</g>
<defs>
<clipPath id="clip0_123_11995">
<path d="M0 1.5H9V13.5H0V1.5Z" fill="white"/>
</clipPath>
</defs>
</svg>
