<svg width="25" height="24" viewBox="0 0 25 24" fill="none" xmlns="http://www.w3.org/2000/svg">
<path fill-rule="evenodd" clip-rule="evenodd" d="M1.5 6.13333C1.5 5.54986 1.73179 4.99028 2.14437 4.5777C2.55695 4.16512 3.11652 3.93333 3.7 3.93333H21.3C21.8835 3.93333 22.4431 4.16512 22.8556 4.5777C23.2682 4.99028 23.5 5.54986 23.5 6.13333V17.8667C23.5 18.4501 23.2682 19.0097 22.8556 19.4223C22.4431 19.8349 21.8835 20.0667 21.3 20.0667H3.7C3.11652 20.0667 2.55695 19.8349 2.14437 19.4223C1.73179 19.0097 1.5 18.4501 1.5 17.8667L1.5 6.13333ZM7.36667 6.86667H4.43333V9.8H5.9V8.33333H7.36667V6.86667ZM19.1 8.33333H17.6333V6.86667H20.5667V9.8H19.1V8.33333ZM12.5 8.33333C11.5275 8.33333 10.5949 8.71964 9.90728 9.40728C9.21964 10.0949 8.83333 11.0275 8.83333 12C8.83333 12.9725 9.21964 13.9051 9.90728 14.5927C10.5949 15.2804 11.5275 15.6667 12.5 15.6667C13.4725 15.6667 14.4051 15.2804 15.0927 14.5927C15.7804 13.9051 16.1667 12.9725 16.1667 12C16.1667 11.0275 15.7804 10.0949 15.0927 9.40728C14.4051 8.71964 13.4725 8.33333 12.5 8.33333ZM17.6333 15.6667V17.1333H20.5667V14.2H19.1V15.6667H17.6333ZM4.43333 14.2H5.9V15.6667H7.36667V17.1333H4.43333V14.2Z" fill="#0068D9"/>
<path d="M10.1 12C10.1 11.3635 10.3529 10.753 10.8029 10.3029C11.253 9.85285 11.8635 9.6 12.5 9.6C13.1365 9.6 13.747 9.85285 14.1971 10.3029C14.6471 10.753 14.9 11.3635 14.9 12C14.9 12.6365 14.6471 13.247 14.1971 13.6971C13.747 14.1471 13.1365 14.4 12.5 14.4C11.8635 14.4 11.253 14.1471 10.8029 13.6971C10.3529 13.247 10.1 12.6365 10.1 12Z" fill="#0068D9"/>
</svg>
