<svg width="41" height="40" viewBox="0 0 41 40" fill="none" xmlns="http://www.w3.org/2000/svg">
<path d="M0.5 4C0.5 1.79086 2.29086 0 4.5 0H36.5C38.7091 0 40.5 1.79086 40.5 4V36C40.5 38.2091 38.7091 40 36.5 40H4.5C2.29086 40 0.5 38.2091 0.5 36V4Z" fill="#E6F0FB"/>
<path d="M14.5 19C14.3022 19 14.1089 19.0586 13.9444 19.1685C13.78 19.2784 13.6518 19.4346 13.5761 19.6173C13.5004 19.8 13.4806 20.0011 13.5192 20.1951C13.5578 20.3891 13.653 20.5673 13.7929 20.7071C13.9327 20.847 14.1109 20.9422 14.3049 20.9808C14.4989 21.0194 14.7 20.9996 14.8827 20.9239C15.0654 20.8482 15.2216 20.72 15.3315 20.5556C15.4414 20.3911 15.5 20.1978 15.5 20C15.5 19.7348 15.3946 19.4804 15.2071 19.2929C15.0196 19.1054 14.7652 19 14.5 19ZM26.5 19C26.3022 19 26.1089 19.0586 25.9444 19.1685C25.78 19.2784 25.6518 19.4346 25.5761 19.6173C25.5004 19.8 25.4806 20.0011 25.5192 20.1951C25.5578 20.3891 25.653 20.5673 25.7929 20.7071C25.9327 20.847 26.1109 20.9422 26.3049 20.9808C26.4989 21.0194 26.7 20.9996 26.8827 20.9239C27.0654 20.8482 27.2216 20.72 27.3315 20.5556C27.4414 20.3911 27.5 20.1978 27.5 20C27.5 19.7348 27.3946 19.4804 27.2071 19.2929C27.0196 19.1054 26.7652 19 26.5 19ZM28.5 13H12.5C11.7044 13 10.9413 13.3161 10.3787 13.8787C9.81607 14.4413 9.5 15.2044 9.5 16V24C9.5 24.7956 9.81607 25.5587 10.3787 26.1213C10.9413 26.6839 11.7044 27 12.5 27H28.5C29.2956 27 30.0587 26.6839 30.6213 26.1213C31.1839 25.5587 31.5 24.7956 31.5 24V16C31.5 15.2044 31.1839 14.4413 30.6213 13.8787C30.0587 13.3161 29.2956 13 28.5 13ZM29.5 24C29.5 24.2652 29.3946 24.5196 29.2071 24.7071C29.0196 24.8946 28.7652 25 28.5 25H12.5C12.2348 25 11.9804 24.8946 11.7929 24.7071C11.6054 24.5196 11.5 24.2652 11.5 24V16C11.5 15.7348 11.6054 15.4804 11.7929 15.2929C11.9804 15.1054 12.2348 15 12.5 15H28.5C28.7652 15 29.0196 15.1054 29.2071 15.2929C29.3946 15.4804 29.5 15.7348 29.5 16V24ZM20.5 17C19.9067 17 19.3266 17.1759 18.8333 17.5056C18.3399 17.8352 17.9554 18.3038 17.7284 18.8519C17.5013 19.4001 17.4419 20.0033 17.5576 20.5853C17.6734 21.1672 17.9591 21.7018 18.3787 22.1213C18.7982 22.5409 19.3328 22.8266 19.9147 22.9424C20.4967 23.0581 21.0999 22.9987 21.6481 22.7716C22.1962 22.5446 22.6648 22.1601 22.9944 21.6667C23.3241 21.1734 23.5 20.5933 23.5 20C23.5 19.2044 23.1839 18.4413 22.6213 17.8787C22.0587 17.3161 21.2956 17 20.5 17ZM20.5 21C20.3022 21 20.1089 20.9414 19.9444 20.8315C19.78 20.7216 19.6518 20.5654 19.5761 20.3827C19.5004 20.2 19.4806 19.9989 19.5192 19.8049C19.5578 19.6109 19.653 19.4327 19.7929 19.2929C19.9327 19.153 20.1109 19.0578 20.3049 19.0192C20.4989 18.9806 20.7 19.0004 20.8827 19.0761C21.0654 19.1518 21.2216 19.28 21.3315 19.4444C21.4414 19.6089 21.5 19.8022 21.5 20C21.5 20.2652 21.3946 20.5196 21.2071 20.7071C21.0196 20.8946 20.7652 21 20.5 21Z" fill="#0068D9"/>
</svg>
