<svg width="25" height="24" viewBox="0 0 25 24" fill="none" xmlns="http://www.w3.org/2000/svg">
<path d="M17.6333 16.4H19.8333V14.2M17.6333 7.60001H19.8333V9.80001M7.36667 7.60001H5.16667V9.80001M5.16667 14.2V16.4H7.36667M12.5 14.9333C11.722 14.9333 10.9759 14.6243 10.4258 14.0742C9.87571 13.5241 9.56667 12.778 9.56667 12C9.56667 11.222 9.87571 10.4759 10.4258 9.92583C10.9759 9.37572 11.722 9.06667 12.5 9.06667C13.278 9.06667 14.0241 9.37572 14.5742 9.92583C15.1243 10.4759 15.4333 11.222 15.4333 12C15.4333 12.778 15.1243 13.5241 14.5742 14.0742C14.0241 14.6243 13.278 14.9333 12.5 14.9333ZM3.7 4.66667H21.3C21.689 4.66667 22.062 4.8212 22.3371 5.09625C22.6121 5.3713 22.7667 5.74435 22.7667 6.13334V17.8667C22.7667 18.2557 22.6121 18.6287 22.3371 18.9038C22.062 19.1788 21.689 19.3333 21.3 19.3333H3.7C3.31102 19.3333 2.93796 19.1788 2.66291 18.9038C2.38786 18.6287 2.23333 18.2557 2.23333 17.8667V6.13334C2.23333 5.74435 2.38786 5.3713 2.66291 5.09625C2.93796 4.8212 3.31102 4.66667 3.7 4.66667Z" stroke="#71717A"/>
</svg>
