<svg width="32" height="32" viewBox="0 0 32 32" fill="none" xmlns="http://www.w3.org/2000/svg">
<path d="M16 0C24.8366 0 32 7.16344 32 16C32 24.8366 24.8366 32 16 32C7.16344 32 0 24.8366 0 16C0 7.16344 7.16344 0 16 0Z" fill="#E6F0FB"/>
<path d="M16 0C24.8366 0 32 7.16344 32 16C32 24.8366 24.8366 32 16 32C7.16344 32 0 24.8366 0 16C0 7.16344 7.16344 0 16 0Z" stroke="#E5E7EB"/>
<path d="M24 25V23C24 21.9391 23.5786 20.9217 22.8284 20.1716C22.0783 19.4214 21.0609 19 20 19H12C10.9391 19 9.92172 19.4214 9.17157 20.1716C8.42143 20.9217 8 21.9391 8 23V25" stroke="#0068D9" stroke-width="2" stroke-linecap="round" stroke-linejoin="round"/>
<path d="M16 15C18.2091 15 20 13.2091 20 11C20 8.79086 18.2091 7 16 7C13.7909 7 12 8.79086 12 11C12 13.2091 13.7909 15 16 15Z" stroke="#0068D9" stroke-width="2" stroke-linecap="round" stroke-linejoin="round"/>
</svg>
