<svg width="32" height="32" viewBox="0 0 32 32" fill="none" xmlns="http://www.w3.org/2000/svg">
<path d="M16 0C24.8366 0 32 7.16344 32 16C32 24.8366 24.8366 32 16 32C7.16344 32 0 24.8366 0 16C0 7.16344 7.16344 0 16 0Z" fill="#E6F0FB"/>
<path d="M16 0C24.8366 0 32 7.16344 32 16C32 24.8366 24.8366 32 16 32C7.16344 32 0 24.8366 0 16C0 7.16344 7.16344 0 16 0Z" stroke="#E5E7EB"/>
<path d="M23 10H20V9C20 8.46957 19.7893 7.96086 19.4142 7.58579C19.0391 7.21071 18.5304 7 18 7H14C13.4696 7 12.9609 7.21071 12.5858 7.58579C12.2107 7.96086 12 8.46957 12 9V10H9C8.20435 10 7.44129 10.3161 6.87868 10.8787C6.31607 11.4413 6 12.2044 6 13V22C6 22.7956 6.31607 23.5587 6.87868 24.1213C7.44129 24.6839 8.20435 25 9 25H23C23.7956 25 24.5587 24.6839 25.1213 24.1213C25.6839 23.5587 26 22.7956 26 22V13C26 12.2044 25.6839 11.4413 25.1213 10.8787C24.5587 10.3161 23.7956 10 23 10ZM14 9H18V10H14V9ZM24 22C24 22.2652 23.8946 22.5196 23.7071 22.7071C23.5196 22.8946 23.2652 23 23 23H9C8.73478 23 8.48043 22.8946 8.29289 22.7071C8.10536 22.5196 8 22.2652 8 22V16.39L12.68 18C12.7862 18.0144 12.8938 18.0144 13 18H19C19.1084 17.998 19.2161 17.9812 19.32 17.95L24 16.39V22ZM24 14.28L18.84 16H13.16L8 14.28V13C8 12.7348 8.10536 12.4804 8.29289 12.2929C8.48043 12.1054 8.73478 12 9 12H23C23.2652 12 23.5196 12.1054 23.7071 12.2929C23.8946 12.4804 24 12.7348 24 13V14.28Z" fill="#0068D9"/>
</svg>
