<svg width="25" height="24" viewBox="0 0 25 24" fill="none" xmlns="http://www.w3.org/2000/svg">
<path d="M13.5 19C13.5 20.1 13.8 21.12 14.31 22H6.5C5.39 22 4.5 21.11 4.5 20V4C4.5 3.46957 4.71071 2.96086 5.08579 2.58579C5.46086 2.21071 5.96957 2 6.5 2H7.5V9L10 7.5L12.5 9V2H18.5C19.0304 2 19.5391 2.21071 19.9142 2.58579C20.2893 2.96086 20.5 3.46957 20.5 4V13.09C20.17 13.04 19.84 13 19.5 13C16.19 13 13.5 15.69 13.5 19ZM20 18.5V15H19V18.5H15.5V19.5H19V23H20V19.5H23.5V18.5H20Z" fill="#0068D9"/>
</svg>
