<svg width="32" height="32" viewBox="0 0 32 32" fill="none" xmlns="http://www.w3.org/2000/svg">
    <path d="M16 0C24.8366 0 32 7.16344 32 16C32 24.8366 24.8366 32 16 32C7.16344 32 0 24.8366 0 16C0 7.16344 7.16344 0 16 0Z" fill="#E2FFDC"/>
    <g clip-path="url(#clip0_138_4789)">
        <path d="M21.8681 11.6321C22.2099 11.9739 22.2099 12.529 21.8681 12.8708L14.8681 19.8708C14.5263 20.2125 13.9712 20.2125 13.6294 19.8708L10.1294 16.3708C9.7876 16.029 9.7876 15.4739 10.1294 15.1321C10.4712 14.7903 11.0263 14.7903 11.3681 15.1321L14.2501 18.0114L20.6321 11.6321C20.9739 11.2903 21.529 11.2903 21.8708 11.6321H21.8681Z" fill="#14AE5C"/>
    </g>
    <defs>
        <clipPath id="clip0_138_4789">
            <path d="M9.875 8.75H22.125V22.75H9.875V8.75Z" fill="white"/>
        </clipPath>
    </defs>
</svg>
