<svg width="32" height="32" viewBox="0 0 32 32" fill="none" xmlns="http://www.w3.org/2000/svg">
<path d="M16 0C24.8366 0 32 7.16344 32 16C32 24.8366 24.8366 32 16 32C7.16344 32 0 24.8366 0 16C0 7.16344 7.16344 0 16 0Z" fill="#FFFAEB"/>
<path d="M7 15.625C7 15.3266 7.11853 15.0405 7.3295 14.8295C7.54048 14.6185 7.82663 14.5 8.125 14.5H23.125C23.4234 14.5 23.7095 14.6185 23.9205 14.8295C24.1315 15.0405 24.25 15.3266 24.25 15.625C24.25 15.9234 24.1315 16.2095 23.9205 16.4205C23.7095 16.6315 23.4234 16.75 23.125 16.75H8.125C7.82663 16.75 7.54048 16.6315 7.3295 16.4205C7.11853 16.2095 7 15.9234 7 15.625Z" fill="#F7D163"/>
</svg>
