<svg width="28" height="28" viewBox="0 0 28 28" fill="none" xmlns="http://www.w3.org/2000/svg">
<path d="M0 4C0 1.79086 1.79086 0 4 0H24C26.2091 0 28 1.79086 28 4V24C28 26.2091 26.2091 28 24 28H4C1.79086 28 0 26.2091 0 24V4Z" fill="#E4E4E7"/>
<path d="M21 6.5C21 7.1901 20.9023 7.86068 20.707 8.51172C20.5117 9.16276 20.2155 9.77799 19.8184 10.3574C19.6165 10.6504 19.4049 10.9173 19.1836 11.1582C18.9622 11.3991 18.7279 11.6172 18.4805 11.8125C18.2331 12.0078 17.9661 12.1934 17.6797 12.3691C17.3932 12.5449 17.0938 12.7044 16.7812 12.8477C16.5404 12.9583 16.3516 13.1081 16.2148 13.2969C16.0781 13.4857 16.0065 13.7201 16 14C16 14.2734 16.0684 14.5046 16.2051 14.6934C16.3418 14.8822 16.5339 15.0352 16.7812 15.1523C17.1003 15.3021 17.3997 15.4616 17.6797 15.6309C17.9596 15.8001 18.2233 15.9824 18.4707 16.1777C18.7181 16.373 18.9557 16.5944 19.1836 16.8418C19.4115 17.0892 19.623 17.3561 19.8184 17.6426C20.209 18.2155 20.502 18.8275 20.6973 19.4785C20.8926 20.1296 20.9935 20.8034 21 21.5H22.25V22.75H6V21.5H7.25C7.25 20.8099 7.34766 20.1393 7.54297 19.4883C7.73828 18.8372 8.03451 18.222 8.43164 17.6426C8.63997 17.3366 8.85482 17.0664 9.07617 16.832C9.29753 16.5977 9.52865 16.3796 9.76953 16.1777C10.0104 15.9759 10.2741 15.7969 10.5605 15.6406C10.847 15.4844 11.1497 15.3249 11.4688 15.1621C11.7031 15.0514 11.8919 14.8984 12.0352 14.7031C12.1784 14.5078 12.25 14.2734 12.25 14C12.25 13.7266 12.1816 13.4954 12.0449 13.3066C11.9082 13.1178 11.7161 12.9648 11.4688 12.8477C11.1497 12.6979 10.8503 12.5384 10.5703 12.3691C10.2904 12.1999 10.0267 12.0176 9.7793 11.8223C9.5319 11.627 9.29427 11.4056 9.06641 11.1582C8.83854 10.9108 8.62695 10.6439 8.43164 10.3574C8.04102 9.78451 7.74805 9.17253 7.55273 8.52148C7.35742 7.87044 7.25651 7.19661 7.25 6.5H6V5.25H22.25V6.5H21ZM14.75 14C14.75 13.4661 14.89 13.0039 15.1699 12.6133C15.4499 12.2227 15.8242 11.9134 16.293 11.6855C16.4818 11.5944 16.6641 11.5065 16.8398 11.4219C17.0156 11.3372 17.1882 11.2298 17.3574 11.0996C17.735 10.8392 18.0703 10.5397 18.3633 10.2012C18.6562 9.86263 18.9069 9.49479 19.1152 9.09766C19.3236 8.70052 19.4798 8.28385 19.584 7.84766C19.6882 7.41146 19.7435 6.96224 19.75 6.5H8.5C8.5 6.95573 8.55208 7.40169 8.65625 7.83789C8.76042 8.27409 8.91667 8.69076 9.125 9.08789C9.33333 9.48503 9.58398 9.85286 9.87695 10.1914C10.1699 10.5299 10.5085 10.8327 10.8926 11.0996C11.0618 11.2233 11.2344 11.3275 11.4102 11.4121C11.5859 11.4967 11.7682 11.5879 11.957 11.6855C12.4258 11.9134 12.8001 12.2227 13.0801 12.6133C13.36 13.0039 13.5 13.4661 13.5 14C13.5 14.5339 13.36 14.9961 13.0801 15.3867C12.8001 15.7773 12.4258 16.0866 11.957 16.3145C11.7682 16.4056 11.5859 16.4935 11.4102 16.5781C11.2344 16.6628 11.0618 16.7702 10.8926 16.9004C10.515 17.1608 10.1797 17.4603 9.88672 17.7988C9.59375 18.1374 9.3431 18.5052 9.13477 18.9023C8.92643 19.2995 8.77018 19.7161 8.66602 20.1523C8.56185 20.5885 8.50651 21.0378 8.5 21.5H19.75C19.75 21.0443 19.6979 20.5983 19.5938 20.1621C19.4896 19.7259 19.3333 19.3092 19.125 18.9121C18.9167 18.515 18.666 18.1471 18.373 17.8086C18.0801 17.4701 17.7415 17.1673 17.3574 16.9004C17.1882 16.7767 17.0156 16.6725 16.8398 16.5879C16.6641 16.5033 16.4818 16.4121 16.293 16.3145C15.8242 16.0866 15.4499 15.7773 15.1699 15.3867C14.89 14.9961 14.75 14.5339 14.75 14Z" fill="black"/>
</svg>
